%TF.GenerationSoftware,KiCad,Pcbnew,(6.0.5-0)*%
%TF.CreationDate,2022-07-11T15:28:30+02:00*%
%TF.ProjectId,USB-C-breakout,5553422d-432d-4627-9265-616b6f75742e,rev?*%
%TF.SameCoordinates,Original*%
%TF.FileFunction,Legend,Top*%
%TF.FilePolarity,Positive*%
%FSLAX46Y46*%
G04 Gerber Fmt 4.6, Leading zero omitted, Abs format (unit mm)*
G04 Created by KiCad (PCBNEW (6.0.5-0)) date 2022-07-11 15:28:30*
%MOMM*%
%LPD*%
G01*
G04 APERTURE LIST*
%ADD10C,0.200000*%
G04 APERTURE END LIST*
%TO.C,kibuzzard-62B9BD67*%
G36*
X148715611Y-83209253D02*
G01*
X148811456Y-83278310D01*
X148875155Y-83375941D01*
X148896388Y-83484685D01*
X148896388Y-83638672D01*
X148296313Y-83638672D01*
X148296313Y-83486272D01*
X148317942Y-83373361D01*
X148382831Y-83275928D01*
X148479867Y-83208658D01*
X148597938Y-83186235D01*
X148715611Y-83209253D01*
G37*
G36*
X147667133Y-84250389D02*
G01*
X147667133Y-83778372D01*
X148013738Y-83778372D01*
X148024453Y-83860128D01*
X148056600Y-83902197D01*
X148097875Y-83917278D01*
X148153438Y-83919660D01*
X149036088Y-83919660D01*
X149137688Y-83900610D01*
X149167453Y-83858541D01*
X149177375Y-83779960D01*
X149177375Y-83489447D01*
X149166560Y-83372518D01*
X149134116Y-83264618D01*
X149080041Y-83165746D01*
X149004338Y-83075903D01*
X148913503Y-83001241D01*
X148814036Y-82947911D01*
X148705937Y-82915913D01*
X148589206Y-82905247D01*
X148472922Y-82916161D01*
X148366163Y-82948903D01*
X148268928Y-83003474D01*
X148181219Y-83079872D01*
X148108640Y-83170657D01*
X148056798Y-83268388D01*
X148025693Y-83373064D01*
X148015325Y-83484685D01*
X148013738Y-83778372D01*
X147667133Y-83778372D01*
X147667133Y-82663947D01*
X148016912Y-82663947D01*
X148026438Y-82741735D01*
X148063744Y-82786978D01*
X148151850Y-82802060D01*
X149037675Y-82802060D01*
X149093238Y-82799678D01*
X149136100Y-82784597D01*
X149168247Y-82743322D01*
X149178963Y-82663947D01*
X149168247Y-82582191D01*
X149136100Y-82540122D01*
X149094825Y-82525041D01*
X149039263Y-82522660D01*
X148516975Y-82522660D01*
X148574831Y-82478298D01*
X148651031Y-82420354D01*
X148745575Y-82348828D01*
X148858464Y-82263721D01*
X148989697Y-82165031D01*
X149139275Y-82052760D01*
X149169438Y-82013072D01*
X149178963Y-81927347D01*
X149168247Y-81845591D01*
X149136100Y-81803522D01*
X149094825Y-81788441D01*
X149039263Y-81786060D01*
X148158200Y-81786060D01*
X148077238Y-81795585D01*
X148043900Y-81815428D01*
X148024850Y-81856703D01*
X148016912Y-81929728D01*
X148026438Y-82005135D01*
X148063744Y-82050378D01*
X148151850Y-82065460D01*
X148688425Y-82065460D01*
X148631143Y-82109204D01*
X148556663Y-82165296D01*
X148464984Y-82233735D01*
X148356108Y-82314521D01*
X148230034Y-82407654D01*
X148086763Y-82513135D01*
X148045488Y-82549647D01*
X148025644Y-82588541D01*
X148016912Y-82663947D01*
X147667133Y-82663947D01*
X147667133Y-81255041D01*
X147997862Y-81255041D01*
X148012415Y-81374456D01*
X148056071Y-81477644D01*
X148128831Y-81564603D01*
X148219936Y-81630308D01*
X148318626Y-81669731D01*
X148424900Y-81682872D01*
X148505863Y-81674935D01*
X148551106Y-81631675D01*
X148566188Y-81543172D01*
X148556663Y-81462210D01*
X148528088Y-81419347D01*
X148488400Y-81404266D01*
X148436013Y-81401885D01*
X148426488Y-81401885D01*
X148389975Y-81395535D01*
X148316156Y-81353466D01*
X148278850Y-81265360D01*
X148293138Y-81185985D01*
X148324094Y-81143916D01*
X148366956Y-81119310D01*
X148407438Y-81108197D01*
X148476891Y-81123080D01*
X148542375Y-81167728D01*
X148602502Y-81233411D01*
X148655881Y-81311397D01*
X148706284Y-81395535D01*
X148757481Y-81479672D01*
X148814234Y-81557658D01*
X148881306Y-81623341D01*
X148956911Y-81667989D01*
X149039263Y-81682872D01*
X149139275Y-81641597D01*
X149182138Y-81543172D01*
X149182138Y-80922460D01*
X149163088Y-80824035D01*
X149121813Y-80789903D01*
X149041644Y-80779585D01*
X148960681Y-80789110D01*
X148914644Y-80826416D01*
X148899563Y-80919285D01*
X148899563Y-81209797D01*
X148891625Y-81209797D01*
X148875750Y-81170110D01*
X148822172Y-81071685D01*
X148734463Y-80960560D01*
X148677313Y-80908966D01*
X148604288Y-80865310D01*
X148520944Y-80835544D01*
X148432838Y-80825622D01*
X148323741Y-80838851D01*
X148222935Y-80878539D01*
X148130419Y-80944685D01*
X148056776Y-81032085D01*
X148012591Y-81135538D01*
X147997862Y-81255041D01*
X147667133Y-81255041D01*
X147667133Y-80448856D01*
X148590000Y-79833611D01*
X149512867Y-80448856D01*
X149512867Y-84250389D01*
X147667133Y-84250389D01*
G37*
%TO.C,kibuzzard-62B9BDF3*%
G36*
X141094023Y-87546744D02*
G01*
X141189869Y-87615801D01*
X141253567Y-87713432D01*
X141274800Y-87822176D01*
X141274800Y-87976163D01*
X140674725Y-87976163D01*
X140674725Y-87823763D01*
X140696355Y-87710852D01*
X140761244Y-87613419D01*
X140858280Y-87546149D01*
X140976350Y-87523726D01*
X141094023Y-87546744D01*
G37*
G36*
X141094023Y-86429144D02*
G01*
X141189869Y-86498201D01*
X141253567Y-86595832D01*
X141274800Y-86704576D01*
X141274800Y-86858563D01*
X140674725Y-86858563D01*
X140674725Y-86706163D01*
X140696355Y-86593252D01*
X140761244Y-86495819D01*
X140858280Y-86428549D01*
X140976350Y-86406126D01*
X141094023Y-86429144D01*
G37*
G36*
X140970000Y-90481591D02*
G01*
X140053483Y-89870580D01*
X140053483Y-89366019D01*
X140384212Y-89366019D01*
X140411200Y-89446188D01*
X140459619Y-89516435D01*
X140512800Y-89539851D01*
X140589000Y-89516038D01*
X141478000Y-89077888D01*
X141534356Y-89024707D01*
X141555788Y-88949301D01*
X141555788Y-88933426D01*
X141534356Y-88859607D01*
X141478000Y-88806426D01*
X140589000Y-88368276D01*
X140512800Y-88344463D01*
X140459619Y-88367879D01*
X140411200Y-88438126D01*
X140384212Y-88531788D01*
X140427075Y-88601638D01*
X140474700Y-88623863D01*
X141170025Y-88941363D01*
X141133314Y-88958627D01*
X141048581Y-88997719D01*
X140936464Y-89049313D01*
X140817600Y-89104082D01*
X140698736Y-89158652D01*
X140586619Y-89209651D01*
X140499306Y-89249537D01*
X140454856Y-89270769D01*
X140412787Y-89296963D01*
X140390563Y-89323951D01*
X140384212Y-89366019D01*
X140053483Y-89366019D01*
X140053483Y-88115863D01*
X140392150Y-88115863D01*
X140402866Y-88197619D01*
X140435012Y-88239688D01*
X140476287Y-88254769D01*
X140531850Y-88257151D01*
X141414500Y-88257151D01*
X141516100Y-88238101D01*
X141545866Y-88196032D01*
X141555788Y-88117451D01*
X141555788Y-87826938D01*
X141544973Y-87710009D01*
X141512528Y-87602109D01*
X141458454Y-87503237D01*
X141382750Y-87413394D01*
X141291915Y-87338732D01*
X141192448Y-87285402D01*
X141084350Y-87253404D01*
X140967619Y-87242738D01*
X140851334Y-87253652D01*
X140744575Y-87286394D01*
X140647341Y-87340965D01*
X140559631Y-87417363D01*
X140487053Y-87508148D01*
X140435211Y-87605879D01*
X140404106Y-87710555D01*
X140393738Y-87822176D01*
X140392150Y-88115863D01*
X140053483Y-88115863D01*
X140053483Y-86998263D01*
X140392150Y-86998263D01*
X140402866Y-87080019D01*
X140435012Y-87122088D01*
X140476287Y-87137169D01*
X140531850Y-87139551D01*
X141414500Y-87139551D01*
X141516100Y-87120501D01*
X141545866Y-87078432D01*
X141555788Y-86999851D01*
X141555788Y-86709338D01*
X141544973Y-86592409D01*
X141512528Y-86484509D01*
X141458454Y-86385637D01*
X141382750Y-86295794D01*
X141291915Y-86221132D01*
X141192448Y-86167802D01*
X141084350Y-86135804D01*
X140967619Y-86125138D01*
X140851334Y-86136052D01*
X140744575Y-86168794D01*
X140647341Y-86223365D01*
X140559631Y-86299763D01*
X140487053Y-86390548D01*
X140435211Y-86488279D01*
X140404106Y-86592955D01*
X140393738Y-86704576D01*
X140392150Y-86998263D01*
X140053483Y-86998263D01*
X140053483Y-85794409D01*
X141886517Y-85794409D01*
X141886517Y-89870580D01*
X140970000Y-90481591D01*
G37*
%TO.C,kibuzzard-62B9BE25*%
G36*
X148590000Y-90276539D02*
G01*
X147667133Y-89661294D01*
X147667133Y-89189278D01*
X148013738Y-89189278D01*
X148024453Y-89271034D01*
X148056600Y-89313103D01*
X148097875Y-89328184D01*
X148153438Y-89330565D01*
X149036088Y-89330565D01*
X149137688Y-89311515D01*
X149167453Y-89269447D01*
X149177375Y-89190865D01*
X149177375Y-88900353D01*
X149166560Y-88783423D01*
X149134116Y-88675523D01*
X149080041Y-88576652D01*
X149004338Y-88486809D01*
X148913503Y-88412147D01*
X148814036Y-88358817D01*
X148705937Y-88326819D01*
X148589206Y-88316153D01*
X148472922Y-88327067D01*
X148366163Y-88359809D01*
X148268928Y-88414379D01*
X148181219Y-88490778D01*
X148108640Y-88581563D01*
X148056798Y-88679293D01*
X148025693Y-88783969D01*
X148015325Y-88895590D01*
X148013738Y-89189278D01*
X147667133Y-89189278D01*
X147667133Y-88071678D01*
X148015325Y-88071678D01*
X148026041Y-88153434D01*
X148058188Y-88195503D01*
X148100256Y-88210584D01*
X148155025Y-88212965D01*
X149036088Y-88212965D01*
X149118638Y-88203440D01*
X149162691Y-88161372D01*
X149177375Y-88073265D01*
X149166659Y-87991509D01*
X149134513Y-87949440D01*
X149092444Y-87934359D01*
X149037675Y-87931978D01*
X148858288Y-87931978D01*
X148858288Y-87733540D01*
X148846999Y-87640407D01*
X148813132Y-87549390D01*
X148756688Y-87460490D01*
X148698942Y-87401356D01*
X148624131Y-87354128D01*
X148535827Y-87323172D01*
X148437600Y-87312853D01*
X148339175Y-87323172D01*
X148250275Y-87354128D01*
X148174869Y-87401356D01*
X148116925Y-87460490D01*
X148060481Y-87549214D01*
X148026614Y-87639701D01*
X148015325Y-87731953D01*
X148015325Y-88071678D01*
X147667133Y-88071678D01*
X147667133Y-86805647D01*
X147997862Y-86805647D01*
X148012415Y-86925062D01*
X148056071Y-87028249D01*
X148128831Y-87115209D01*
X148219936Y-87180914D01*
X148318626Y-87220337D01*
X148424900Y-87233478D01*
X148505863Y-87225540D01*
X148551106Y-87182281D01*
X148566188Y-87093778D01*
X148556663Y-87012815D01*
X148528088Y-86969953D01*
X148488400Y-86954872D01*
X148436013Y-86952490D01*
X148426488Y-86952490D01*
X148389975Y-86946140D01*
X148316156Y-86904072D01*
X148278850Y-86815965D01*
X148293138Y-86736590D01*
X148324094Y-86694522D01*
X148366956Y-86669915D01*
X148407438Y-86658803D01*
X148476891Y-86673686D01*
X148542375Y-86718334D01*
X148602502Y-86784017D01*
X148655881Y-86862003D01*
X148706284Y-86946140D01*
X148757481Y-87030278D01*
X148814234Y-87108264D01*
X148881306Y-87173947D01*
X148956911Y-87218595D01*
X149039263Y-87233478D01*
X149139275Y-87192203D01*
X149182138Y-87093778D01*
X149182138Y-86473065D01*
X149163088Y-86374640D01*
X149121813Y-86340509D01*
X149041644Y-86330190D01*
X148960681Y-86339715D01*
X148914644Y-86377022D01*
X148899563Y-86469890D01*
X148899563Y-86760403D01*
X148891625Y-86760403D01*
X148875750Y-86720715D01*
X148822172Y-86622290D01*
X148734463Y-86511165D01*
X148677313Y-86459572D01*
X148604288Y-86415915D01*
X148520944Y-86386150D01*
X148432838Y-86376228D01*
X148323741Y-86389457D01*
X148222935Y-86429144D01*
X148130419Y-86495290D01*
X148056776Y-86582691D01*
X148012591Y-86686143D01*
X147997862Y-86805647D01*
X147667133Y-86805647D01*
X147667133Y-85999461D01*
X149512867Y-85999461D01*
X149512867Y-89661294D01*
X148590000Y-90276539D01*
G37*
G36*
X148542375Y-87638290D02*
G01*
X148577300Y-87731953D01*
X148577300Y-87931978D01*
X148296313Y-87931978D01*
X148296313Y-87733540D01*
X148332031Y-87638290D01*
X148437600Y-87592253D01*
X148542375Y-87638290D01*
G37*
G36*
X148715611Y-88620159D02*
G01*
X148811456Y-88689215D01*
X148875155Y-88786847D01*
X148896388Y-88895590D01*
X148896388Y-89049578D01*
X148296313Y-89049578D01*
X148296313Y-88897178D01*
X148317942Y-88784267D01*
X148382831Y-88686834D01*
X148479867Y-88619564D01*
X148597938Y-88597140D01*
X148715611Y-88620159D01*
G37*
%TO.C,kibuzzard-62B9BE2F*%
G36*
X151247673Y-88512474D02*
G01*
X151343519Y-88581530D01*
X151407217Y-88679161D01*
X151428450Y-88787905D01*
X151428450Y-88941892D01*
X150828375Y-88941892D01*
X150828375Y-88789492D01*
X150850005Y-88676581D01*
X150914894Y-88579149D01*
X151011930Y-88511878D01*
X151130000Y-88489455D01*
X151247673Y-88512474D01*
G37*
G36*
X151130000Y-90163562D02*
G01*
X150215071Y-89553609D01*
X150215071Y-89081592D01*
X150545800Y-89081592D01*
X150556516Y-89163349D01*
X150588663Y-89205417D01*
X150629937Y-89220499D01*
X150685500Y-89222880D01*
X151568150Y-89222880D01*
X151669750Y-89203830D01*
X151699516Y-89161761D01*
X151709437Y-89083180D01*
X151709437Y-88792667D01*
X151698623Y-88675738D01*
X151666178Y-88567838D01*
X151612104Y-88468966D01*
X151536400Y-88379124D01*
X151445565Y-88304462D01*
X151346098Y-88251131D01*
X151238000Y-88219133D01*
X151121269Y-88208467D01*
X151004984Y-88219381D01*
X150898225Y-88252124D01*
X150800991Y-88306694D01*
X150713281Y-88383092D01*
X150640703Y-88473878D01*
X150588861Y-88571608D01*
X150557756Y-88676284D01*
X150547388Y-88787905D01*
X150545800Y-89081592D01*
X150215071Y-89081592D01*
X150215071Y-87967167D01*
X150548975Y-87967167D01*
X150558500Y-88044955D01*
X150595806Y-88090199D01*
X150683913Y-88105280D01*
X151569738Y-88105280D01*
X151625300Y-88102899D01*
X151668163Y-88087817D01*
X151700309Y-88046542D01*
X151711025Y-87967167D01*
X151700309Y-87885411D01*
X151668163Y-87843342D01*
X151626888Y-87828261D01*
X151571325Y-87825880D01*
X151049037Y-87825880D01*
X151106893Y-87781518D01*
X151183093Y-87723574D01*
X151277638Y-87652049D01*
X151390526Y-87566941D01*
X151521760Y-87468251D01*
X151671337Y-87355980D01*
X151701500Y-87316292D01*
X151711025Y-87230567D01*
X151700309Y-87148811D01*
X151668163Y-87106742D01*
X151626888Y-87091661D01*
X151571325Y-87089280D01*
X150690262Y-87089280D01*
X150609300Y-87098805D01*
X150575962Y-87118649D01*
X150556912Y-87159924D01*
X150548975Y-87232949D01*
X150558500Y-87308355D01*
X150595806Y-87353599D01*
X150683913Y-87368680D01*
X151220488Y-87368680D01*
X151163205Y-87412424D01*
X151088725Y-87468516D01*
X150997047Y-87536955D01*
X150888171Y-87617741D01*
X150762097Y-87710874D01*
X150618825Y-87816355D01*
X150577550Y-87852867D01*
X150557706Y-87891761D01*
X150548975Y-87967167D01*
X150215071Y-87967167D01*
X150215071Y-86590011D01*
X150545800Y-86590011D01*
X150587075Y-86679705D01*
X150590250Y-86684467D01*
X150825200Y-86944817D01*
X150918862Y-87001967D01*
X151017288Y-86951961D01*
X151072850Y-86855917D01*
X151023638Y-86744792D01*
X151004588Y-86724155D01*
X151571325Y-86724155D01*
X151629269Y-86721774D01*
X151672925Y-86706692D01*
X151703881Y-86664227D01*
X151714200Y-86584455D01*
X151703484Y-86502699D01*
X151671337Y-86460630D01*
X151629269Y-86445549D01*
X151574500Y-86443167D01*
X150690262Y-86443167D01*
X150606125Y-86451105D01*
X150571994Y-86473330D01*
X150553738Y-86514605D01*
X150545800Y-86590011D01*
X150215071Y-86590011D01*
X150215071Y-86112438D01*
X152044929Y-86112438D01*
X152044929Y-89553609D01*
X151130000Y-90163562D01*
G37*
%TO.C,kibuzzard-62B9BD52*%
G36*
X145123958Y-83776785D02*
G01*
X145123958Y-82839631D01*
X145454687Y-82839631D01*
X145464212Y-82944229D01*
X145492787Y-83048475D01*
X145540413Y-83152368D01*
X145590220Y-83230354D01*
X145650744Y-83299212D01*
X145725356Y-83357751D01*
X145817431Y-83404781D01*
X145923992Y-83435737D01*
X146042063Y-83446056D01*
X146161323Y-83435538D01*
X146271456Y-83403987D01*
X146367500Y-83356163D01*
X146444494Y-83296831D01*
X146506803Y-83227576D01*
X146558794Y-83149987D01*
X146598878Y-83069421D01*
X146625469Y-82991237D01*
X146640352Y-82914640D01*
X146645313Y-82838837D01*
X146638963Y-82762041D01*
X146619913Y-82682468D01*
X146578638Y-82575312D01*
X146545300Y-82520543D01*
X146505613Y-82470537D01*
X146450050Y-82449106D01*
X146361150Y-82484031D01*
X146294475Y-82539196D01*
X146272250Y-82590393D01*
X146304000Y-82666593D01*
X146324638Y-82695168D01*
X146350038Y-82757874D01*
X146362738Y-82850743D01*
X146345275Y-82953534D01*
X146292888Y-83052356D01*
X146192875Y-83133318D01*
X146125208Y-83157131D01*
X146049206Y-83165068D01*
X145973205Y-83157131D01*
X145905538Y-83133318D01*
X145807113Y-83053943D01*
X145753534Y-82953137D01*
X145735675Y-82850743D01*
X145749169Y-82750731D01*
X145789650Y-82672943D01*
X145824575Y-82591981D01*
X145803144Y-82539593D01*
X145738850Y-82480856D01*
X145650744Y-82447518D01*
X145575338Y-82488793D01*
X145546762Y-82533243D01*
X145524537Y-82571343D01*
X145477706Y-82688024D01*
X145460442Y-82764423D01*
X145454687Y-82839631D01*
X145123958Y-82839631D01*
X145123958Y-81761718D01*
X145454687Y-81761718D01*
X145464212Y-81866317D01*
X145492787Y-81970562D01*
X145540413Y-82074456D01*
X145590220Y-82152441D01*
X145650744Y-82221299D01*
X145725356Y-82279838D01*
X145817431Y-82326868D01*
X145923992Y-82357824D01*
X146042063Y-82368143D01*
X146161323Y-82357626D01*
X146271456Y-82326074D01*
X146367500Y-82278251D01*
X146444494Y-82218918D01*
X146506803Y-82149663D01*
X146558794Y-82072074D01*
X146598878Y-81991509D01*
X146625469Y-81913324D01*
X146640352Y-81836727D01*
X146645313Y-81760924D01*
X146638963Y-81684129D01*
X146619913Y-81604556D01*
X146578638Y-81497399D01*
X146545300Y-81442631D01*
X146505613Y-81392624D01*
X146450050Y-81371193D01*
X146361150Y-81406118D01*
X146294475Y-81461284D01*
X146272250Y-81512481D01*
X146304000Y-81588681D01*
X146324638Y-81617256D01*
X146350038Y-81679962D01*
X146362738Y-81772831D01*
X146345275Y-81875621D01*
X146292888Y-81974443D01*
X146192875Y-82055406D01*
X146125208Y-82079218D01*
X146049206Y-82087156D01*
X145973205Y-82079218D01*
X145905538Y-82055406D01*
X145807113Y-81976031D01*
X145753534Y-81875224D01*
X145735675Y-81772831D01*
X145749169Y-81672818D01*
X145789650Y-81595031D01*
X145824575Y-81514068D01*
X145803144Y-81461681D01*
X145738850Y-81402943D01*
X145650744Y-81369606D01*
X145575338Y-81410881D01*
X145546762Y-81455331D01*
X145524537Y-81493431D01*
X145477706Y-81610112D01*
X145460442Y-81686510D01*
X145454687Y-81761718D01*
X145123958Y-81761718D01*
X145123958Y-80894149D01*
X145464213Y-80894149D01*
X145505487Y-80983843D01*
X145508663Y-80988606D01*
X145743613Y-81248956D01*
X145837275Y-81306106D01*
X145935700Y-81256099D01*
X145991263Y-81160056D01*
X145942050Y-81048931D01*
X145923000Y-81028293D01*
X146489738Y-81028293D01*
X146547681Y-81025912D01*
X146591338Y-81010831D01*
X146622294Y-80968365D01*
X146632613Y-80888593D01*
X146621897Y-80806837D01*
X146589750Y-80764768D01*
X146547681Y-80749687D01*
X146492913Y-80747306D01*
X145608675Y-80747306D01*
X145524537Y-80755243D01*
X145490406Y-80777468D01*
X145472150Y-80818743D01*
X145464213Y-80894149D01*
X145123958Y-80894149D01*
X145123958Y-80416576D01*
X146050000Y-79799215D01*
X146976042Y-80416576D01*
X146976042Y-83776785D01*
X145123958Y-83776785D01*
G37*
%TO.C,kibuzzard-62B9BDB7*%
G36*
X141094023Y-80944156D02*
G01*
X141189869Y-81013212D01*
X141253567Y-81110843D01*
X141274800Y-81219587D01*
X141274800Y-81373574D01*
X140674725Y-81373574D01*
X140674725Y-81221174D01*
X140696355Y-81108263D01*
X140761244Y-81010831D01*
X140858280Y-80943560D01*
X140976350Y-80921137D01*
X141094023Y-80944156D01*
G37*
G36*
X141094023Y-82061756D02*
G01*
X141189869Y-82130812D01*
X141253567Y-82228443D01*
X141274800Y-82337187D01*
X141274800Y-82491174D01*
X140674725Y-82491174D01*
X140674725Y-82338774D01*
X140696355Y-82225863D01*
X140761244Y-82128431D01*
X140858280Y-82061160D01*
X140976350Y-82038737D01*
X141094023Y-82061756D01*
G37*
G36*
X140053483Y-84385591D02*
G01*
X140053483Y-83881031D01*
X140384212Y-83881031D01*
X140411200Y-83961199D01*
X140459619Y-84031446D01*
X140512800Y-84054862D01*
X140589000Y-84031049D01*
X141478000Y-83592899D01*
X141534356Y-83539718D01*
X141555788Y-83464312D01*
X141555788Y-83448437D01*
X141534356Y-83374618D01*
X141478000Y-83321437D01*
X140589000Y-82883287D01*
X140512800Y-82859474D01*
X140459619Y-82882890D01*
X140411200Y-82953137D01*
X140384212Y-83046799D01*
X140427075Y-83116649D01*
X140474700Y-83138874D01*
X141170025Y-83456374D01*
X141133314Y-83473638D01*
X141048581Y-83512731D01*
X140936464Y-83564324D01*
X140817600Y-83619093D01*
X140698736Y-83673663D01*
X140586619Y-83724662D01*
X140499306Y-83764548D01*
X140454856Y-83785781D01*
X140412787Y-83811974D01*
X140390563Y-83838962D01*
X140384212Y-83881031D01*
X140053483Y-83881031D01*
X140053483Y-82630874D01*
X140392150Y-82630874D01*
X140402866Y-82712631D01*
X140435012Y-82754699D01*
X140476287Y-82769781D01*
X140531850Y-82772162D01*
X141414500Y-82772162D01*
X141516100Y-82753112D01*
X141545866Y-82711043D01*
X141555788Y-82632462D01*
X141555788Y-82341949D01*
X141544973Y-82225020D01*
X141512528Y-82117120D01*
X141458454Y-82018248D01*
X141382750Y-81928406D01*
X141291915Y-81853743D01*
X141192448Y-81800413D01*
X141084350Y-81768415D01*
X140967619Y-81757749D01*
X140851334Y-81768663D01*
X140744575Y-81801406D01*
X140647341Y-81855976D01*
X140559631Y-81932374D01*
X140487053Y-82023159D01*
X140435211Y-82120890D01*
X140404106Y-82225566D01*
X140393738Y-82337187D01*
X140392150Y-82630874D01*
X140053483Y-82630874D01*
X140053483Y-81513274D01*
X140392150Y-81513274D01*
X140402866Y-81595031D01*
X140435012Y-81637099D01*
X140476287Y-81652181D01*
X140531850Y-81654562D01*
X141414500Y-81654562D01*
X141516100Y-81635512D01*
X141545866Y-81593443D01*
X141555788Y-81514862D01*
X141555788Y-81224349D01*
X141544973Y-81107420D01*
X141512528Y-80999520D01*
X141458454Y-80900648D01*
X141382750Y-80810806D01*
X141291915Y-80736143D01*
X141192448Y-80682813D01*
X141084350Y-80650815D01*
X140967619Y-80640149D01*
X140851334Y-80651063D01*
X140744575Y-80683806D01*
X140647341Y-80738376D01*
X140559631Y-80814774D01*
X140487053Y-80905559D01*
X140435211Y-81003290D01*
X140404106Y-81107966D01*
X140393738Y-81219587D01*
X140392150Y-81513274D01*
X140053483Y-81513274D01*
X140053483Y-80309420D01*
X140970000Y-79698409D01*
X141886517Y-80309420D01*
X141886517Y-84385591D01*
X140053483Y-84385591D01*
G37*
%TO.C,kibuzzard-62B9BD75*%
G36*
X151074438Y-81720708D02*
G01*
X151109363Y-81814370D01*
X151109363Y-82014395D01*
X150828375Y-82014395D01*
X150828375Y-81815958D01*
X150864094Y-81720708D01*
X150969663Y-81674670D01*
X151074438Y-81720708D01*
G37*
G36*
X151247673Y-82702576D02*
G01*
X151343519Y-82771633D01*
X151407217Y-82869264D01*
X151428450Y-82978008D01*
X151428450Y-83131995D01*
X150828375Y-83131995D01*
X150828375Y-82979595D01*
X150850005Y-82866684D01*
X150914894Y-82769251D01*
X151011930Y-82701981D01*
X151130000Y-82679558D01*
X151247673Y-82702576D01*
G37*
G36*
X150215071Y-83743712D02*
G01*
X150215071Y-83271695D01*
X150545800Y-83271695D01*
X150556516Y-83353451D01*
X150588663Y-83395520D01*
X150629937Y-83410601D01*
X150685500Y-83412983D01*
X151568150Y-83412983D01*
X151669750Y-83393933D01*
X151699516Y-83351864D01*
X151709437Y-83273283D01*
X151709437Y-82982770D01*
X151698623Y-82865841D01*
X151666178Y-82757940D01*
X151612104Y-82659069D01*
X151536400Y-82569226D01*
X151445565Y-82494564D01*
X151346098Y-82441234D01*
X151238000Y-82409236D01*
X151121269Y-82398570D01*
X151004984Y-82409484D01*
X150898225Y-82442226D01*
X150800991Y-82496797D01*
X150713281Y-82573195D01*
X150640703Y-82663980D01*
X150588861Y-82761711D01*
X150557756Y-82866387D01*
X150547388Y-82978008D01*
X150545800Y-83271695D01*
X150215071Y-83271695D01*
X150215071Y-82154095D01*
X150547388Y-82154095D01*
X150558103Y-82235851D01*
X150590250Y-82277920D01*
X150632319Y-82293001D01*
X150687087Y-82295383D01*
X151568150Y-82295383D01*
X151650700Y-82285858D01*
X151694753Y-82243789D01*
X151709437Y-82155683D01*
X151698722Y-82073926D01*
X151666575Y-82031858D01*
X151624506Y-82016776D01*
X151569738Y-82014395D01*
X151390350Y-82014395D01*
X151390350Y-81815958D01*
X151379061Y-81722824D01*
X151345194Y-81631808D01*
X151288750Y-81542908D01*
X151231005Y-81483773D01*
X151156194Y-81436545D01*
X151067889Y-81405589D01*
X150969663Y-81395270D01*
X150871238Y-81405589D01*
X150782337Y-81436545D01*
X150706931Y-81483773D01*
X150648987Y-81542908D01*
X150592543Y-81631631D01*
X150558676Y-81722119D01*
X150547388Y-81814370D01*
X150547388Y-82154095D01*
X150215071Y-82154095D01*
X150215071Y-80919814D01*
X150545800Y-80919814D01*
X150587075Y-81009508D01*
X150590250Y-81014270D01*
X150825200Y-81274620D01*
X150918862Y-81331770D01*
X151017288Y-81281764D01*
X151072850Y-81185720D01*
X151023638Y-81074595D01*
X151004588Y-81053958D01*
X151571325Y-81053958D01*
X151629269Y-81051576D01*
X151672925Y-81036495D01*
X151703881Y-80994030D01*
X151714200Y-80914258D01*
X151703484Y-80832501D01*
X151671337Y-80790433D01*
X151629269Y-80775351D01*
X151574500Y-80772970D01*
X150690262Y-80772970D01*
X150606125Y-80780908D01*
X150571994Y-80803133D01*
X150553738Y-80844408D01*
X150545800Y-80919814D01*
X150215071Y-80919814D01*
X150215071Y-80442241D01*
X151130000Y-79832288D01*
X152044929Y-80442241D01*
X152044929Y-83743712D01*
X150215071Y-83743712D01*
G37*
%TO.C,kibuzzard-62B9BCC1*%
G36*
X138550848Y-86474388D02*
G01*
X138646694Y-86543444D01*
X138710392Y-86641076D01*
X138731625Y-86749819D01*
X138731625Y-86903807D01*
X138131550Y-86903807D01*
X138131550Y-86751407D01*
X138153180Y-86638496D01*
X138218069Y-86541063D01*
X138315105Y-86473793D01*
X138433175Y-86451369D01*
X138550848Y-86474388D01*
G37*
G36*
X138430000Y-90436347D02*
G01*
X137499196Y-89815811D01*
X137499196Y-88888182D01*
X137829925Y-88888182D01*
X137840492Y-89004863D01*
X137872192Y-89113607D01*
X137925026Y-89214413D01*
X137998994Y-89307282D01*
X138088737Y-89385069D01*
X138188898Y-89440632D01*
X138299478Y-89473969D01*
X138420475Y-89485082D01*
X138542068Y-89474168D01*
X138654433Y-89441426D01*
X138757571Y-89386855D01*
X138851481Y-89310457D01*
X138929616Y-89219275D01*
X138985427Y-89120354D01*
X139018913Y-89013694D01*
X139030075Y-88899294D01*
X139021443Y-88774279D01*
X138995547Y-88665932D01*
X138952387Y-88574254D01*
X138891963Y-88499244D01*
X138795125Y-88454794D01*
X138445875Y-88454794D01*
X138356975Y-88470669D01*
X138312525Y-88575444D01*
X138312525Y-88854844D01*
X138326813Y-88931044D01*
X138361737Y-88957238D01*
X138429206Y-88964382D01*
X138495881Y-88958032D01*
X138533188Y-88931044D01*
X138545888Y-88861194D01*
X138545888Y-88735782D01*
X138718925Y-88735782D01*
X138740356Y-88809998D01*
X138747500Y-88892944D01*
X138723489Y-89007244D01*
X138651456Y-89108844D01*
X138582841Y-89161761D01*
X138505053Y-89193511D01*
X138418094Y-89204094D01*
X138293872Y-89180679D01*
X138195844Y-89110432D01*
X138132145Y-89010023D01*
X138110913Y-88896119D01*
X138121827Y-88810394D01*
X138154569Y-88737369D01*
X138198225Y-88640532D01*
X138177191Y-88586954D01*
X138114087Y-88527819D01*
X138024394Y-88491307D01*
X137953750Y-88534169D01*
X137884958Y-88647587D01*
X137843683Y-88765592D01*
X137829925Y-88888182D01*
X137499196Y-88888182D01*
X137499196Y-88189682D01*
X137852150Y-88189682D01*
X137861675Y-88267469D01*
X137898981Y-88312713D01*
X137987087Y-88327794D01*
X138872913Y-88327794D01*
X138928475Y-88325413D01*
X138971338Y-88310332D01*
X139003484Y-88269057D01*
X139014200Y-88189682D01*
X139003484Y-88107926D01*
X138971338Y-88065857D01*
X138930063Y-88050776D01*
X138874500Y-88048394D01*
X138352212Y-88048394D01*
X138410068Y-88004033D01*
X138486268Y-87946089D01*
X138580813Y-87874563D01*
X138693701Y-87789456D01*
X138824935Y-87690766D01*
X138974513Y-87578494D01*
X139004675Y-87538807D01*
X139014200Y-87453082D01*
X139003484Y-87371326D01*
X138971338Y-87329257D01*
X138930063Y-87314176D01*
X138874500Y-87311794D01*
X137993438Y-87311794D01*
X137912475Y-87321319D01*
X137879138Y-87341163D01*
X137860088Y-87382438D01*
X137852150Y-87455463D01*
X137861675Y-87530869D01*
X137898981Y-87576113D01*
X137987087Y-87591194D01*
X138523663Y-87591194D01*
X138466380Y-87634939D01*
X138391900Y-87691031D01*
X138300222Y-87759469D01*
X138191346Y-87840256D01*
X138065272Y-87933389D01*
X137922000Y-88038869D01*
X137880725Y-88075382D01*
X137860881Y-88114276D01*
X137852150Y-88189682D01*
X137499196Y-88189682D01*
X137499196Y-87043507D01*
X137848975Y-87043507D01*
X137859691Y-87125263D01*
X137891837Y-87167332D01*
X137933112Y-87182413D01*
X137988675Y-87184794D01*
X138871325Y-87184794D01*
X138972925Y-87165744D01*
X139002691Y-87123676D01*
X139012613Y-87045094D01*
X139012613Y-86754582D01*
X139001798Y-86637653D01*
X138969353Y-86529752D01*
X138915279Y-86430881D01*
X138839575Y-86341038D01*
X138748740Y-86266376D01*
X138649273Y-86213046D01*
X138541175Y-86181048D01*
X138424444Y-86170382D01*
X138308159Y-86181296D01*
X138201400Y-86214038D01*
X138104166Y-86268609D01*
X138016456Y-86345007D01*
X137943878Y-86435792D01*
X137892036Y-86533523D01*
X137860931Y-86638198D01*
X137850563Y-86749819D01*
X137848975Y-87043507D01*
X137499196Y-87043507D01*
X137499196Y-85839653D01*
X139360804Y-85839653D01*
X139360804Y-89815811D01*
X138430000Y-90436347D01*
G37*
%TO.C,kibuzzard-62B9BCFF*%
G36*
X137499196Y-84340347D02*
G01*
X137499196Y-83412718D01*
X137829925Y-83412718D01*
X137840492Y-83529399D01*
X137872192Y-83638143D01*
X137925026Y-83738949D01*
X137998994Y-83831818D01*
X138088737Y-83909606D01*
X138188898Y-83965168D01*
X138299478Y-83998506D01*
X138420475Y-84009618D01*
X138542068Y-83998704D01*
X138654433Y-83965962D01*
X138757571Y-83911391D01*
X138851481Y-83834993D01*
X138929616Y-83743811D01*
X138985427Y-83644890D01*
X139018913Y-83538230D01*
X139030075Y-83423831D01*
X139021443Y-83298815D01*
X138995547Y-83190468D01*
X138952387Y-83098790D01*
X138891963Y-83023781D01*
X138795125Y-82979331D01*
X138445875Y-82979331D01*
X138356975Y-82995206D01*
X138312525Y-83099981D01*
X138312525Y-83379381D01*
X138326813Y-83455581D01*
X138361737Y-83481774D01*
X138429206Y-83488918D01*
X138495881Y-83482568D01*
X138533188Y-83455581D01*
X138545888Y-83385731D01*
X138545888Y-83260318D01*
X138718925Y-83260318D01*
X138740356Y-83334534D01*
X138747500Y-83417481D01*
X138723489Y-83531781D01*
X138651456Y-83633381D01*
X138582841Y-83686297D01*
X138505053Y-83718047D01*
X138418094Y-83728631D01*
X138293872Y-83705215D01*
X138195844Y-83634968D01*
X138132145Y-83534559D01*
X138110913Y-83420656D01*
X138121827Y-83334931D01*
X138154569Y-83261906D01*
X138198225Y-83165068D01*
X138177191Y-83111490D01*
X138114087Y-83052356D01*
X138024394Y-83015843D01*
X137953750Y-83058706D01*
X137884958Y-83172124D01*
X137843683Y-83290128D01*
X137829925Y-83412718D01*
X137499196Y-83412718D01*
X137499196Y-82714218D01*
X137852150Y-82714218D01*
X137861675Y-82792006D01*
X137898981Y-82837249D01*
X137987087Y-82852331D01*
X138872913Y-82852331D01*
X138928475Y-82849949D01*
X138971338Y-82834868D01*
X139003484Y-82793593D01*
X139014200Y-82714218D01*
X139003484Y-82632462D01*
X138971338Y-82590393D01*
X138930063Y-82575312D01*
X138874500Y-82572931D01*
X138352212Y-82572931D01*
X138410068Y-82528569D01*
X138486268Y-82470625D01*
X138580813Y-82399099D01*
X138693701Y-82313992D01*
X138824935Y-82215302D01*
X138974513Y-82103031D01*
X139004675Y-82063343D01*
X139014200Y-81977618D01*
X139003484Y-81895862D01*
X138971338Y-81853793D01*
X138930063Y-81838712D01*
X138874500Y-81836331D01*
X137993438Y-81836331D01*
X137912475Y-81845856D01*
X137879138Y-81865699D01*
X137860088Y-81906974D01*
X137852150Y-81979999D01*
X137861675Y-82055406D01*
X137898981Y-82100649D01*
X137987087Y-82115731D01*
X138523663Y-82115731D01*
X138466380Y-82159475D01*
X138391900Y-82215567D01*
X138300222Y-82284006D01*
X138191346Y-82364792D01*
X138065272Y-82457925D01*
X137922000Y-82563406D01*
X137880725Y-82599918D01*
X137860881Y-82638812D01*
X137852150Y-82714218D01*
X137499196Y-82714218D01*
X137499196Y-81568043D01*
X137848975Y-81568043D01*
X137859691Y-81649799D01*
X137891837Y-81691868D01*
X137933112Y-81706949D01*
X137988675Y-81709331D01*
X138871325Y-81709331D01*
X138972925Y-81690281D01*
X139002691Y-81648212D01*
X139012613Y-81569631D01*
X139012613Y-81279118D01*
X139001798Y-81162189D01*
X138969353Y-81054288D01*
X138915279Y-80955417D01*
X138839575Y-80865574D01*
X138748740Y-80790912D01*
X138649273Y-80737582D01*
X138541175Y-80705584D01*
X138424444Y-80694918D01*
X138308159Y-80705832D01*
X138201400Y-80738574D01*
X138104166Y-80793145D01*
X138016456Y-80869543D01*
X137943878Y-80960328D01*
X137892036Y-81058059D01*
X137860931Y-81162734D01*
X137850563Y-81274356D01*
X137848975Y-81568043D01*
X137499196Y-81568043D01*
X137499196Y-80364189D01*
X138430000Y-79743653D01*
X139360804Y-80364189D01*
X139360804Y-84340347D01*
X137499196Y-84340347D01*
G37*
G36*
X138550848Y-80998924D02*
G01*
X138646694Y-81067981D01*
X138710392Y-81165612D01*
X138731625Y-81274356D01*
X138731625Y-81428343D01*
X138131550Y-81428343D01*
X138131550Y-81275943D01*
X138153180Y-81163032D01*
X138218069Y-81065599D01*
X138315105Y-80998329D01*
X138433175Y-80975906D01*
X138550848Y-80998924D01*
G37*
D10*
%TO.C,J1*%
X133650000Y-80210000D02*
X132400000Y-80210000D01*
X128400000Y-80210000D02*
X128400000Y-89790000D01*
X129680000Y-80210000D02*
X128400000Y-80210000D01*
X128400000Y-89790000D02*
X129680000Y-89790000D01*
X133650000Y-89790000D02*
X132400000Y-89790000D01*
%TO.C,kibuzzard-62B9BE07*%
G36*
X143510000Y-90308024D02*
G01*
X142580783Y-89688547D01*
X142580783Y-88751392D01*
X142917862Y-88751392D01*
X142927387Y-88855991D01*
X142955963Y-88960237D01*
X143003588Y-89064130D01*
X143053395Y-89142116D01*
X143113919Y-89210974D01*
X143188531Y-89269513D01*
X143280606Y-89316542D01*
X143387167Y-89347499D01*
X143505238Y-89357817D01*
X143624498Y-89347300D01*
X143734631Y-89315749D01*
X143830675Y-89267925D01*
X143907669Y-89208592D01*
X143969978Y-89139338D01*
X144021969Y-89061749D01*
X144062053Y-88981183D01*
X144088644Y-88902999D01*
X144103527Y-88826402D01*
X144108488Y-88750599D01*
X144102138Y-88673803D01*
X144083088Y-88594230D01*
X144041813Y-88487074D01*
X144008475Y-88432305D01*
X143968788Y-88382299D01*
X143913225Y-88360867D01*
X143824325Y-88395792D01*
X143757650Y-88450958D01*
X143735425Y-88502155D01*
X143767175Y-88578355D01*
X143787813Y-88606930D01*
X143813213Y-88669636D01*
X143825913Y-88762505D01*
X143808450Y-88865295D01*
X143756063Y-88964117D01*
X143656050Y-89045080D01*
X143588383Y-89068892D01*
X143512381Y-89076830D01*
X143436380Y-89068892D01*
X143368713Y-89045080D01*
X143270288Y-88965705D01*
X143216709Y-88864899D01*
X143198850Y-88762505D01*
X143212344Y-88662492D01*
X143252825Y-88584705D01*
X143287750Y-88503742D01*
X143266319Y-88451355D01*
X143202025Y-88392617D01*
X143113919Y-88359280D01*
X143038513Y-88400555D01*
X143009937Y-88445005D01*
X142987713Y-88483105D01*
X142940881Y-88599786D01*
X142923617Y-88676185D01*
X142917862Y-88751392D01*
X142580783Y-88751392D01*
X142580783Y-87673480D01*
X142917862Y-87673480D01*
X142927387Y-87778078D01*
X142955963Y-87882324D01*
X143003588Y-87986217D01*
X143053395Y-88064203D01*
X143113919Y-88133061D01*
X143188531Y-88191600D01*
X143280606Y-88238630D01*
X143387167Y-88269586D01*
X143505238Y-88279905D01*
X143624498Y-88269388D01*
X143734631Y-88237836D01*
X143830675Y-88190013D01*
X143907669Y-88130680D01*
X143969978Y-88061425D01*
X144021969Y-87983836D01*
X144062053Y-87903270D01*
X144088644Y-87825086D01*
X144103527Y-87748489D01*
X144108488Y-87672686D01*
X144102138Y-87595891D01*
X144083088Y-87516317D01*
X144041813Y-87409161D01*
X144008475Y-87354392D01*
X143968788Y-87304386D01*
X143913225Y-87282955D01*
X143824325Y-87317880D01*
X143757650Y-87373045D01*
X143735425Y-87424242D01*
X143767175Y-87500442D01*
X143787813Y-87529017D01*
X143813213Y-87591724D01*
X143825913Y-87684592D01*
X143808450Y-87787383D01*
X143756063Y-87886205D01*
X143656050Y-87967167D01*
X143588383Y-87990980D01*
X143512381Y-87998917D01*
X143436380Y-87990980D01*
X143368713Y-87967167D01*
X143270288Y-87887792D01*
X143216709Y-87786986D01*
X143198850Y-87684592D01*
X143212344Y-87584580D01*
X143252825Y-87506792D01*
X143287750Y-87425830D01*
X143266319Y-87373442D01*
X143202025Y-87314705D01*
X143113919Y-87281367D01*
X143038513Y-87322642D01*
X143009937Y-87367092D01*
X142987713Y-87405192D01*
X142940881Y-87521874D01*
X142923617Y-87598272D01*
X142917862Y-87673480D01*
X142580783Y-87673480D01*
X142580783Y-86774161D01*
X142911512Y-86774161D01*
X142926065Y-86893576D01*
X142969721Y-86996764D01*
X143042481Y-87083724D01*
X143133586Y-87149428D01*
X143232276Y-87188851D01*
X143338550Y-87201992D01*
X143419513Y-87194055D01*
X143464756Y-87150795D01*
X143479838Y-87062292D01*
X143470313Y-86981330D01*
X143441738Y-86938467D01*
X143402050Y-86923386D01*
X143349663Y-86921005D01*
X143340138Y-86921005D01*
X143303625Y-86914655D01*
X143229806Y-86872586D01*
X143192500Y-86784480D01*
X143206788Y-86705105D01*
X143237744Y-86663036D01*
X143280606Y-86638430D01*
X143321088Y-86627317D01*
X143390541Y-86642200D01*
X143456025Y-86686849D01*
X143516152Y-86752531D01*
X143569531Y-86830517D01*
X143619934Y-86914655D01*
X143671131Y-86998792D01*
X143727884Y-87076778D01*
X143794956Y-87142461D01*
X143870561Y-87187110D01*
X143952913Y-87201992D01*
X144052925Y-87160717D01*
X144095788Y-87062292D01*
X144095788Y-86441580D01*
X144076738Y-86343155D01*
X144035463Y-86309024D01*
X143955294Y-86298705D01*
X143874331Y-86308230D01*
X143828294Y-86345536D01*
X143813213Y-86438405D01*
X143813213Y-86728917D01*
X143805275Y-86728917D01*
X143789400Y-86689230D01*
X143735822Y-86590805D01*
X143648113Y-86479680D01*
X143590963Y-86428086D01*
X143517938Y-86384430D01*
X143434594Y-86354664D01*
X143346488Y-86344742D01*
X143237391Y-86357972D01*
X143136585Y-86397659D01*
X143044069Y-86463805D01*
X142970426Y-86551206D01*
X142926241Y-86654658D01*
X142911512Y-86774161D01*
X142580783Y-86774161D01*
X142580783Y-85967976D01*
X144439217Y-85967976D01*
X144439217Y-89688547D01*
X143510000Y-90308024D01*
G37*
%TO.C,kibuzzard-62B9BDD1*%
G36*
X143783844Y-81959494D02*
G01*
X143810831Y-82034503D01*
X143810831Y-82294853D01*
X143209169Y-82294853D01*
X143209169Y-82072603D01*
X143225044Y-81994022D01*
X143280606Y-81967828D01*
X143337756Y-81972591D01*
X143371094Y-82048791D01*
X143393319Y-82146422D01*
X143484600Y-82175791D01*
X143575881Y-82147216D01*
X143598106Y-82061491D01*
X143610806Y-81972591D01*
X143642556Y-81943222D01*
X143702881Y-81934491D01*
X143783844Y-81959494D01*
G37*
G36*
X142579990Y-83855895D02*
G01*
X142579990Y-83117178D01*
X142910719Y-83117178D01*
X142922272Y-83228392D01*
X142956933Y-83322848D01*
X143014700Y-83400547D01*
X143087990Y-83458315D01*
X143169217Y-83492975D01*
X143258381Y-83504528D01*
X143352639Y-83494408D01*
X143432212Y-83464047D01*
X143494720Y-83418605D01*
X143537781Y-83363241D01*
X143568936Y-83300535D01*
X143595725Y-83233066D01*
X143616958Y-83165597D01*
X143631444Y-83102891D01*
X143667163Y-83002085D01*
X143728281Y-82961603D01*
X143795309Y-82978008D01*
X143835526Y-83027220D01*
X143848931Y-83109241D01*
X143824325Y-83185441D01*
X143772731Y-83248941D01*
X143713200Y-83319585D01*
X143693356Y-83372766D01*
X143731456Y-83456903D01*
X143791583Y-83508100D01*
X143838613Y-83525166D01*
X143929894Y-83483891D01*
X143947356Y-83469603D01*
X143995775Y-83423566D01*
X144045781Y-83352128D01*
X144091025Y-83244178D01*
X144104717Y-83175519D01*
X144109281Y-83102891D01*
X144099933Y-83007465D01*
X144071887Y-82915919D01*
X144025144Y-82828253D01*
X143973352Y-82767928D01*
X143903700Y-82720303D01*
X143818967Y-82689347D01*
X143721931Y-82679028D01*
X143626880Y-82689149D01*
X143548100Y-82719510D01*
X143487973Y-82764952D01*
X143448881Y-82820316D01*
X143422489Y-82883419D01*
X143400462Y-82952078D01*
X143383198Y-83020738D01*
X143371094Y-83083841D01*
X143334581Y-83184647D01*
X143263937Y-83225128D01*
X143195675Y-83190997D01*
X143171069Y-83105272D01*
X143191706Y-83020341D01*
X143212344Y-82995735D01*
X143228219Y-82977478D01*
X143259969Y-82894928D01*
X143240125Y-82838572D01*
X143180594Y-82783803D01*
X143093281Y-82745703D01*
X143015494Y-82794916D01*
X142985331Y-82834603D01*
X142935325Y-82943347D01*
X142916870Y-83026096D01*
X142910719Y-83117178D01*
X142579990Y-83117178D01*
X142579990Y-82434553D01*
X142928181Y-82434553D01*
X142938897Y-82516310D01*
X142971044Y-82558378D01*
X143012319Y-82573460D01*
X143067881Y-82575841D01*
X143948944Y-82575841D01*
X144031494Y-82566316D01*
X144076737Y-82524247D01*
X144091819Y-82436141D01*
X144091819Y-82018628D01*
X144079912Y-81923114D01*
X144044194Y-81837653D01*
X143984663Y-81762247D01*
X143907492Y-81703245D01*
X143818857Y-81666997D01*
X143718756Y-81653503D01*
X143629680Y-81663910D01*
X143546601Y-81695131D01*
X143469519Y-81747166D01*
X143377841Y-81701922D01*
X143277431Y-81686841D01*
X143185709Y-81698306D01*
X143103159Y-81732702D01*
X143029781Y-81790028D01*
X142973337Y-81860937D01*
X142939470Y-81942428D01*
X142928181Y-82034503D01*
X142928181Y-82434553D01*
X142579990Y-82434553D01*
X142579990Y-81146297D01*
X142912306Y-81146297D01*
X142926858Y-81265712D01*
X142970515Y-81368900D01*
X143043275Y-81455860D01*
X143134380Y-81521565D01*
X143233069Y-81560987D01*
X143339344Y-81574128D01*
X143420306Y-81566191D01*
X143465550Y-81522932D01*
X143480631Y-81434428D01*
X143471106Y-81353466D01*
X143442531Y-81310603D01*
X143402844Y-81295522D01*
X143350456Y-81293141D01*
X143340931Y-81293141D01*
X143304419Y-81286791D01*
X143230600Y-81244722D01*
X143193294Y-81156616D01*
X143207581Y-81077241D01*
X143238538Y-81035172D01*
X143281400Y-81010566D01*
X143321881Y-80999453D01*
X143391334Y-81014336D01*
X143456819Y-81058985D01*
X143516945Y-81124668D01*
X143570325Y-81202653D01*
X143620728Y-81286791D01*
X143671925Y-81370928D01*
X143728678Y-81448914D01*
X143795750Y-81514597D01*
X143871355Y-81559246D01*
X143953706Y-81574128D01*
X144053719Y-81532853D01*
X144096581Y-81434428D01*
X144096581Y-80813716D01*
X144077531Y-80715291D01*
X144036256Y-80681160D01*
X143956087Y-80670841D01*
X143875125Y-80680366D01*
X143829088Y-80717672D01*
X143814006Y-80810541D01*
X143814006Y-81101053D01*
X143806069Y-81101053D01*
X143790194Y-81061366D01*
X143736616Y-80962941D01*
X143648906Y-80851816D01*
X143591756Y-80800222D01*
X143518731Y-80756566D01*
X143435387Y-80726800D01*
X143347281Y-80716878D01*
X143238185Y-80730108D01*
X143137378Y-80769795D01*
X143044862Y-80835941D01*
X142971220Y-80923342D01*
X142927035Y-81026794D01*
X142912306Y-81146297D01*
X142579990Y-81146297D01*
X142579990Y-80340112D01*
X143510000Y-79720105D01*
X144440010Y-80340112D01*
X144440010Y-83855895D01*
X142579990Y-83855895D01*
G37*
%TO.C,kibuzzard-62B9C129*%
G36*
X146070000Y-90277714D02*
G01*
X145139990Y-89657707D01*
X145139990Y-88918990D01*
X145470719Y-88918990D01*
X145482272Y-89030203D01*
X145516933Y-89124660D01*
X145574700Y-89202359D01*
X145647990Y-89260126D01*
X145729217Y-89294787D01*
X145818381Y-89306340D01*
X145912639Y-89296220D01*
X145992212Y-89265859D01*
X146054720Y-89220417D01*
X146097781Y-89165053D01*
X146128936Y-89102347D01*
X146155725Y-89034878D01*
X146176958Y-88967409D01*
X146191444Y-88904703D01*
X146227163Y-88803897D01*
X146288281Y-88763415D01*
X146355309Y-88779819D01*
X146395526Y-88829032D01*
X146408931Y-88911053D01*
X146384325Y-88987253D01*
X146332731Y-89050753D01*
X146273200Y-89121397D01*
X146253356Y-89174578D01*
X146291456Y-89258715D01*
X146351583Y-89309912D01*
X146398613Y-89326978D01*
X146489894Y-89285703D01*
X146507356Y-89271415D01*
X146555775Y-89225378D01*
X146605781Y-89153940D01*
X146651025Y-89045990D01*
X146664717Y-88977331D01*
X146669281Y-88904703D01*
X146659933Y-88809276D01*
X146631887Y-88717731D01*
X146585144Y-88630065D01*
X146533352Y-88569740D01*
X146463700Y-88522115D01*
X146378967Y-88491159D01*
X146281931Y-88480840D01*
X146186880Y-88490961D01*
X146108100Y-88521322D01*
X146047973Y-88566764D01*
X146008881Y-88622128D01*
X145982489Y-88685231D01*
X145960462Y-88753890D01*
X145943198Y-88822550D01*
X145931094Y-88885653D01*
X145894581Y-88986459D01*
X145823937Y-89026940D01*
X145755675Y-88992809D01*
X145731069Y-88907084D01*
X145751706Y-88822153D01*
X145772344Y-88797547D01*
X145788219Y-88779290D01*
X145819969Y-88696740D01*
X145800125Y-88640384D01*
X145740594Y-88585615D01*
X145653281Y-88547515D01*
X145575494Y-88596728D01*
X145545331Y-88636415D01*
X145495325Y-88745159D01*
X145476870Y-88827907D01*
X145470719Y-88918990D01*
X145139990Y-88918990D01*
X145139990Y-88236365D01*
X145488181Y-88236365D01*
X145498897Y-88318122D01*
X145531044Y-88360190D01*
X145572319Y-88375272D01*
X145627881Y-88377653D01*
X146508944Y-88377653D01*
X146591494Y-88368128D01*
X146636737Y-88326059D01*
X146651819Y-88237953D01*
X146651819Y-87820440D01*
X146639912Y-87724926D01*
X146604194Y-87639465D01*
X146544663Y-87564059D01*
X146467492Y-87505057D01*
X146378857Y-87468809D01*
X146278756Y-87455315D01*
X146189680Y-87465722D01*
X146106601Y-87496943D01*
X146029519Y-87548978D01*
X145937841Y-87503734D01*
X145837431Y-87488653D01*
X145745709Y-87500118D01*
X145663159Y-87534514D01*
X145589781Y-87591840D01*
X145533337Y-87662749D01*
X145499470Y-87744240D01*
X145488181Y-87836315D01*
X145488181Y-88236365D01*
X145139990Y-88236365D01*
X145139990Y-86979859D01*
X145488181Y-86979859D01*
X145529456Y-87069553D01*
X145532631Y-87074315D01*
X145767581Y-87334665D01*
X145861244Y-87391815D01*
X145959669Y-87341809D01*
X146015231Y-87245765D01*
X145966019Y-87134640D01*
X145946969Y-87114003D01*
X146513706Y-87114003D01*
X146571650Y-87111622D01*
X146615306Y-87096540D01*
X146646262Y-87054075D01*
X146656581Y-86974303D01*
X146645866Y-86892547D01*
X146613719Y-86850478D01*
X146571650Y-86835397D01*
X146516881Y-86833015D01*
X145632644Y-86833015D01*
X145548506Y-86840953D01*
X145514375Y-86863178D01*
X145496119Y-86904453D01*
X145488181Y-86979859D01*
X145139990Y-86979859D01*
X145139990Y-86502286D01*
X147000010Y-86502286D01*
X147000010Y-89657707D01*
X146070000Y-90277714D01*
G37*
G36*
X146343844Y-87761306D02*
G01*
X146370831Y-87836315D01*
X146370831Y-88096665D01*
X145769169Y-88096665D01*
X145769169Y-87874415D01*
X145785044Y-87795834D01*
X145840606Y-87769640D01*
X145897756Y-87774403D01*
X145931094Y-87850603D01*
X145953319Y-87948234D01*
X146044600Y-87977603D01*
X146135881Y-87949028D01*
X146158106Y-87863303D01*
X146170806Y-87774403D01*
X146202556Y-87745034D01*
X146262881Y-87736303D01*
X146343844Y-87761306D01*
G37*
%TD*%
M02*
