%TF.GenerationSoftware,KiCad,Pcbnew,(6.0.5-0)*%
%TF.CreationDate,2022-07-11T15:28:30+02:00*%
%TF.ProjectId,USB-C-breakout,5553422d-432d-4627-9265-616b6f75742e,rev?*%
%TF.SameCoordinates,Original*%
%TF.FileFunction,Copper,L1,Top*%
%TF.FilePolarity,Positive*%
%FSLAX46Y46*%
G04 Gerber Fmt 4.6, Leading zero omitted, Abs format (unit mm)*
G04 Created by KiCad (PCBNEW (6.0.5-0)) date 2022-07-11 15:28:30*
%MOMM*%
%LPD*%
G01*
G04 APERTURE LIST*
%TA.AperFunction,SMDPad,CuDef*%
%ADD10R,1.150000X0.600000*%
%TD*%
%TA.AperFunction,SMDPad,CuDef*%
%ADD11R,1.150000X0.300000*%
%TD*%
%TA.AperFunction,ComponentPad*%
%ADD12O,2.100000X1.050000*%
%TD*%
%TA.AperFunction,ComponentPad*%
%ADD13O,2.000000X1.000000*%
%TD*%
%TA.AperFunction,ComponentPad*%
%ADD14R,1.700000X1.700000*%
%TD*%
%TA.AperFunction,ComponentPad*%
%ADD15O,1.700000X1.700000*%
%TD*%
%TA.AperFunction,Conductor*%
%ADD16C,0.600000*%
%TD*%
%TA.AperFunction,Conductor*%
%ADD17C,0.250000*%
%TD*%
%TA.AperFunction,Conductor*%
%ADD18C,0.200000*%
%TD*%
G04 APERTURE END LIST*
D10*
%TO.P,J1,A1_B12,GND*%
%TO.N,GND*%
X135755000Y-81800000D03*
%TO.P,J1,A4_B9,VBUS*%
%TO.N,VBUS*%
X135755000Y-82600000D03*
D11*
%TO.P,J1,A5,CC1*%
%TO.N,CC1*%
X135755000Y-83750000D03*
%TO.P,J1,A6,DP1*%
%TO.N,DP1*%
X135755000Y-84750000D03*
%TO.P,J1,A7,DN1*%
%TO.N,DN1*%
X135755000Y-85250000D03*
%TO.P,J1,A8,SBU1*%
%TO.N,SBU1*%
X135755000Y-86250000D03*
D10*
%TO.P,J1,B1_A12,GND*%
%TO.N,GND*%
X135755000Y-88200000D03*
%TO.P,J1,B4_A9,VBUS*%
%TO.N,VBUS*%
X135755000Y-87400000D03*
D11*
%TO.P,J1,B5,CC2*%
%TO.N,CC2*%
X135755000Y-86750000D03*
%TO.P,J1,B6,DP2*%
%TO.N,DP2*%
X135755000Y-85750000D03*
%TO.P,J1,B7,DN2*%
%TO.N,DN2*%
X135755000Y-84250000D03*
%TO.P,J1,B8,SBU2*%
%TO.N,SBU2*%
X135755000Y-83250000D03*
D12*
%TO.P,J1,S1,SHELL_GND*%
%TO.N,Shell*%
X135180000Y-80680000D03*
D13*
%TO.P,J1,S2,SHELL_GND*%
X131000000Y-80680000D03*
%TO.P,J1,S3,SHELL_GND*%
X131000000Y-89320000D03*
D12*
%TO.P,J1,S4,SHELL_GND*%
X135180000Y-89320000D03*
%TD*%
D14*
%TO.P,J2,1,Pin_1*%
%TO.N,GND*%
X138430000Y-91440000D03*
D15*
%TO.P,J2,2,Pin_2*%
%TO.N,VBUS*%
X140970000Y-91440000D03*
%TO.P,J2,3,Pin_3*%
%TO.N,CC2*%
X143510000Y-91440000D03*
%TO.P,J2,4,Pin_4*%
%TO.N,SBU1*%
X146050000Y-91440000D03*
%TO.P,J2,5,Pin_5*%
%TO.N,DP2*%
X148590000Y-91440000D03*
%TO.P,J2,6,Pin_6*%
%TO.N,DN1*%
X151130000Y-91440000D03*
%TD*%
D14*
%TO.P,J3,1,Pin_1*%
%TO.N,GND*%
X138430000Y-78740000D03*
D15*
%TO.P,J3,2,Pin_2*%
%TO.N,VBUS*%
X140970000Y-78740000D03*
%TO.P,J3,3,Pin_3*%
%TO.N,SBU2*%
X143510000Y-78740000D03*
%TO.P,J3,4,Pin_4*%
%TO.N,CC1*%
X146050000Y-78740000D03*
%TO.P,J3,5,Pin_5*%
%TO.N,DN2*%
X148590000Y-78740000D03*
%TO.P,J3,6,Pin_6*%
%TO.N,DP1*%
X151130000Y-78740000D03*
%TD*%
D16*
%TO.N,GND*%
X135755000Y-88200000D02*
X136700000Y-88200000D01*
X138430000Y-89930000D02*
X138430000Y-91440000D01*
X136700000Y-88200000D02*
X138430000Y-89930000D01*
X138430000Y-80570000D02*
X138430000Y-78740000D01*
X135755000Y-81800000D02*
X137200000Y-81800000D01*
X137200000Y-81800000D02*
X138430000Y-80570000D01*
%TO.N,VBUS*%
X135755000Y-87400000D02*
X138400000Y-87400000D01*
X140970000Y-89970000D02*
X140970000Y-91440000D01*
X138900000Y-82600000D02*
X140970000Y-80530000D01*
X138400000Y-87400000D02*
X140970000Y-89970000D01*
X135755000Y-82600000D02*
X138900000Y-82600000D01*
X140970000Y-80530000D02*
X140970000Y-78740000D01*
D17*
%TO.N,CC1*%
X146050000Y-80450000D02*
X146050000Y-78740000D01*
X135755000Y-83750000D02*
X142750000Y-83750000D01*
X142750000Y-83750000D02*
X146050000Y-80450000D01*
D18*
%TO.N,DP1*%
X146750000Y-84750000D02*
X151130000Y-80370000D01*
X151130000Y-80370000D02*
X151130000Y-78740000D01*
X135755000Y-84750000D02*
X146750000Y-84750000D01*
%TO.N,DN1*%
X151130000Y-90130000D02*
X151130000Y-91440000D01*
X135755000Y-85250000D02*
X146250000Y-85250000D01*
X146250000Y-85250000D02*
X151130000Y-90130000D01*
D17*
%TO.N,SBU1*%
X146050000Y-90050000D02*
X146050000Y-91440000D01*
X142250000Y-86250000D02*
X146050000Y-90050000D01*
X135755000Y-86250000D02*
X142250000Y-86250000D01*
%TO.N,CC2*%
X140250000Y-86750000D02*
X143510000Y-90010000D01*
X143510000Y-90010000D02*
X143510000Y-91440000D01*
X135755000Y-86750000D02*
X140250000Y-86750000D01*
D18*
%TO.N,DP2*%
X135755000Y-85750000D02*
X144250000Y-85750000D01*
X148590000Y-90090000D02*
X148590000Y-91440000D01*
X144250000Y-85750000D02*
X148590000Y-90090000D01*
%TO.N,DN2*%
X148590000Y-80410000D02*
X148590000Y-78740000D01*
X144750000Y-84250000D02*
X148590000Y-80410000D01*
X135755000Y-84250000D02*
X144750000Y-84250000D01*
D17*
%TO.N,SBU2*%
X140750000Y-83250000D02*
X143510000Y-80490000D01*
X143510000Y-80490000D02*
X143510000Y-78740000D01*
X135755000Y-83250000D02*
X140750000Y-83250000D01*
%TD*%
M02*
